<svg xmlns="http://www.w3.org/2000/svg" width="208" height="32" viewBox="0 0 208 32">
  <g fill="none" fill-rule="evenodd">
    <path fill="none" d="M7,8.1 L12.1,6"/>
    <path stroke="#515967" stroke-width="2" d="M7,8.1 L12.1,6"/>
    <path fill="none" d="M12,23 L22,23"/>
    <path stroke="#515967" stroke-width="2" d="M12,23 L22,23" stroke-linecap="round"/>
    <path fill="none" d="M6.9,8 C3.4,9.8 1,12.9 1,17.1 L1,20.1"/>
    <path stroke="#515967" stroke-width="2" d="M6.9,8 C3.4,9.8 1,12.9 1,17.1 L1,20.1"/>
    <polygon fill="none" points="1 27 25 27 25 31 1 31"/>
    <polygon stroke="#515967" stroke-width="2" points="1 27 25 27 25 31 1 31" stroke-linecap="square"/>
    <polygon fill="none" points="15.8 16 10.7 18 5 4.1 10.1 2 10.1 2"/>
    <polygon stroke="#515967" stroke-width="2" points="15.8 16 10.7 18 5 4.1 10.1 2 10.1 2" stroke-linecap="square"/>
    <path fill="none" d="M7,27 L1,27 L1,20 L1,20 C4.3,20 7,22.7 7,26 L7,27 Z"/>
    <path stroke="#515967" stroke-width="2" d="M7,27 L1,27 L1,20 L1,20 C4.3,20 7,22.7 7,26 L7,27 Z" stroke-linecap="square"/>
    <path fill="#515967" d="M40.04,25 L52.01,25 L52.01,22.21 L43.16,22.21 L43.16,6.58 L40.04,6.58 L40.04,25 Z M57.1254838,6.58 L57.1254838,25 L69.1554838,25 L69.1554838,22.21 L60.1854838,22.21 L60.1854838,16.93 L68.3154838,16.93 L68.3154838,14.2 L60.1854838,14.2 L60.1854838,9.34 L69.1554838,9.34 L69.1554838,6.58 L57.1254838,6.58 Z M77.6009676,6.58 L74.4809676,6.58 L74.4809676,25 L77.6009676,25 L77.6009676,16.57 L85.1609676,25 L89.1209676,25 L80.5409676,15.4 L88.8509676,6.58 L84.9809676,6.58 L77.6009676,14.59 L77.6009676,6.58 Z M96.6664514,6.58 L93.5464514,6.58 L93.5464514,25 L96.6664514,25 L96.6664514,16.57 L104.226451,25 L108.186451,25 L99.6064514,15.4 L107.916451,6.58 L104.046451,6.58 L96.6664514,14.59 L96.6664514,6.58 Z M112.611935,6.58 L112.611935,25 L124.641935,25 L124.641935,22.21 L115.671935,22.21 L115.671935,16.93 L123.801935,16.93 L123.801935,14.2 L115.671935,14.2 L115.671935,9.34 L124.641935,9.34 L124.641935,6.58 L112.611935,6.58 Z M135.307419,17.53 L133.087419,17.53 L133.087419,25 L129.967419,25 L129.967419,6.58 L137.077419,6.58 C140.887419,6.58 143.347419,8.5 143.347419,12.1 C143.347419,15.19 141.547419,16.96 138.637419,17.41 L143.977419,25 L140.437419,25 L135.307419,17.53 Z M133.087419,9.28 L133.087419,14.92 L137.017419,14.92 C139.087419,14.92 140.257419,13.81 140.257419,12.1 C140.257419,10.39 139.087419,9.28 137.017419,9.28 L133.087419,9.28 Z M157.118387,25 L169.088387,25 L169.088387,22.21 L160.238387,22.21 L160.238387,6.58 L157.118387,6.58 L157.118387,25 Z M179.843871,6.58 L182.843871,6.58 L189.923871,25 L186.743871,25 L184.853871,19.9 L177.803871,19.9 L175.913871,25 L172.763871,25 L179.843871,6.58 Z M181.313871,10.39 L178.793871,17.2 L183.833871,17.2 L181.313871,10.39 Z M204.789354,15.49 C206.529354,16.06 207.789354,17.77 207.789354,19.72 C207.789354,23.17 205.389354,25 201.549354,25 L194.499354,25 L194.499354,6.58 L200.949354,6.58 C204.789354,6.58 207.189354,8.29 207.189354,11.59 C207.189354,13.57 206.139354,15.01 204.789354,15.49 Z M197.529354,14.32 L200.919354,14.32 C203.049354,14.32 204.189354,13.51 204.189354,11.77 C204.189354,10.03 203.049354,9.28 200.919354,9.28 L197.529354,9.28 L197.529354,14.32 Z M197.529354,16.9 L197.529354,22.3 L201.489354,22.3 C203.589354,22.3 204.729354,21.25 204.729354,19.6 C204.729354,17.92 203.589354,16.9 201.489354,16.9 L197.529354,16.9 Z"/>
  </g>
</svg>
