<svg xmlns="http://www.w3.org/2000/svg" width="208" height="32" viewBox="0 0 208 32">
  <g fill="none" fill-rule="evenodd">
    <path fill="none" d="M7,8.1 L12.1,6"/>
    <path stroke="#515967" stroke-width="2" d="M7,8.1 L12.1,6"/>
    <path fill="none" d="M12,23 L22,23"/>
    <path stroke="#515967" stroke-width="2" d="M12,23 L22,23" stroke-linecap="round"/>
    <path fill="none" d="M6.9,8 C3.4,9.8 1,12.9 1,17.1 L1,20.1"/>
    <path stroke="#515967" stroke-width="2" d="M6.9,8 C3.4,9.8 1,12.9 1,17.1 L1,20.1"/>
    <polygon fill="none" points="1 27 25 27 25 31 1 31"/>
    <polygon stroke="#515967" stroke-width="2" points="1 27 25 27 25 31 1 31" stroke-linecap="square"/>
    <polygon fill="none" points="15.8 16 10.7 18 5 4.1 10.1 2 10.1 2"/>
    <polygon stroke="#515967" stroke-width="2" points="15.8 16 10.7 18 5 4.1 10.1 2 10.1 2" stroke-linecap="square"/>
    <path fill="none" d="M7,27 L1,27 L1,20 L1,20 C4.3,20 7,22.7 7,26 L7,27 Z"/>
    <path stroke="#515967" stroke-width="2" d="M7,27 L1,27 L1,20 L1,20 C4.3,20 7,22.7 7,26 L7,27 Z" stroke-linecap="square"/>
    <path fill="#515967" d="M40,24 L49.0977199,24 L49.0977199,21.8794788 L42.3713355,21.8794788 L42.3713355,10 L40,10 L40,24 Z M52.9857097,10 L52.9857097,24 L62.1290322,24 L62.1290322,21.8794788 L55.3114426,21.8794788 L55.3114426,17.8664495 L61.4905957,17.8664495 L61.4905957,15.7915309 L55.3114426,15.7915309 L55.3114426,12.0977199 L62.1290322,12.0977199 L62.1290322,10 L52.9857097,10 Z M68.5479667,10 L66.1766312,10 L66.1766312,24 L68.5479667,24 L68.5479667,17.5928339 L74.293895,24 L77.303667,24 L70.7824944,16.7035831 L77.0984553,10 L74.1570872,10 L68.5479667,16.0879479 L68.5479667,10 Z M83.0385624,10 L80.6672269,10 L80.6672269,24 L83.0385624,24 L83.0385624,17.5928339 L88.7844908,24 L91.7942628,24 L85.2730901,16.7035831 L91.589051,10 L88.647683,10 L83.0385624,16.0879479 L83.0385624,10 Z M95.1578227,10 L95.1578227,24 L104.301145,24 L104.301145,21.8794788 L97.4835556,21.8794788 L97.4835556,17.8664495 L103.662709,17.8664495 L103.662709,15.7915309 L97.4835556,15.7915309 L97.4835556,12.0977199 L104.301145,12.0977199 L104.301145,10 L95.1578227,10 Z M112.407376,18.3224756 L110.72008,18.3224756 L110.72008,24 L108.348744,24 L108.348744,10 L113.752653,10 C116.648418,10 118.518125,11.4592834 118.518125,14.1954397 C118.518125,16.5439739 117.150047,17.8892508 114.938321,18.2312704 L118.996953,24 L116.306399,24 L112.407376,18.3224756 Z M110.72008,12.0521173 L110.72008,16.3387622 L113.70705,16.3387622 C115.28034,16.3387622 116.169591,15.495114 116.169591,14.1954397 C116.169591,12.8957655 115.28034,12.0521173 113.70705,12.0521173 L110.72008,12.0521173 Z M128.984659,24 L138.082379,24 L138.082379,21.8794788 L131.355994,21.8794788 L131.355994,10 L128.984659,10 L128.984659,24 Z M146.257013,10 L148.537144,10 L153.918251,24 L151.501313,24 L150.064831,20.1237785 L144.706525,20.1237785 L143.270043,24 L140.875906,24 L146.257013,10 Z M147.374277,12.8957655 L145.458968,18.0716612 L149.289587,18.0716612 L147.374277,12.8957655 Z M165.216665,16.771987 C166.53914,17.2052117 167.496795,18.504886 167.496795,19.9869707 C167.496795,22.6091205 165.672691,24 162.754124,24 L157.395818,24 L157.395818,10 L162.298098,10 C165.216665,10 167.040769,11.2996743 167.040769,13.8078176 C167.040769,15.3127036 166.242723,16.4071661 165.216665,16.771987 Z M159.698749,15.8827362 L162.275296,15.8827362 C163.894189,15.8827362 164.760638,15.267101 164.760638,13.9446254 C164.760638,12.6221498 163.894189,12.0521173 162.275296,12.0521173 L159.698749,12.0521173 L159.698749,15.8827362 Z M159.698749,17.8436482 L159.698749,21.9478827 L162.708521,21.9478827 C164.304612,21.9478827 165.171062,21.1498371 165.171062,19.8957655 C165.171062,18.6188925 164.304612,17.8436482 162.708521,17.8436482 L159.698749,17.8436482 Z"/>
  </g>
</svg>
